fd_4_states
version=1
nRows=23
nColumns=17
inDegrees=yes

# SIMM Motion File Header:
name fd_4_states
datacolumns 17
datarows 23
otherdata 1
range 0.519488 0.532467
endheader
time	/jointset/r_shoulder/r_shoulder_elev/value	/jointset/r_shoulder/r_shoulder_elev/speed	/jointset/r_elbow/r_elbow_flex/value	/jointset/r_elbow/r_elbow_flex/speed	/forceset/TRIlong/activation	/forceset/TRIlong/fiber_length	/forceset/TRIlat/activation	/forceset/TRIlat/fiber_length	/forceset/TRImed/activation	/forceset/TRImed/fiber_length	/forceset/BIClong/activation	/forceset/BIClong/fiber_length	/forceset/BICshort/activation	/forceset/BICshort/fiber_length	/forceset/BRA/activation	/forceset/BRA/fiber_length
      0.519488	      0.074921	      2.046878	     69.597393	     -5.830559	      0.213812	      0.161961	      0.795437	      0.094970	      0.740467	      0.090207	      0.741163	      0.110833	      0.703095	      0.110378	      0.077344	      0.075720
      0.519688	      0.075328	      2.025753	     69.596278	     -5.310641	      0.213019	      0.161964	      0.792494	      0.094974	      0.736786	      0.090211	      0.744350	      0.110827	      0.706883	      0.110370	      0.077168	      0.075721
      0.519911	      0.075777	      1.995368	     69.595163	     -4.690850	      0.212141	      0.161967	      0.789254	      0.094978	      0.732734	      0.090217	      0.747845	      0.110820	      0.711031	      0.110360	      0.076972	      0.075722
      0.519968	      0.075890	      1.986421	     69.594900	     -4.525137	      0.211916	      0.161967	      0.788430	      0.094979	      0.731704	      0.090218	      0.748731	      0.110818	      0.712082	      0.110357	      0.076922	      0.075722
      0.519995	      0.075944	      1.982032	     69.594779	     -4.445921	      0.211811	      0.161968	      0.788042	      0.094980	      0.731219	      0.090219	      0.749148	      0.110817	      0.712577	      0.110356	      0.076899	      0.075723
      0.520019	      0.075992	      1.977989	     69.594672	     -4.374205	      0.213726	      0.161968	      0.788238	      0.094980	      0.731486	      0.090219	      0.748612	      0.110816	      0.712102	      0.110355	      0.076877	      0.075723
      0.520044	      0.076040	      1.973844	     69.594567	     -4.302147	      0.216028	      0.161968	      0.788543	      0.094980	      0.731893	      0.090220	      0.747896	      0.110816	      0.711445	      0.110354	      0.076856	      0.075723
      0.520165	      0.076278	      1.951601	     69.594067	     -3.937007	      0.227299	      0.161969	      0.790060	      0.094983	      0.733918	      0.090223	      0.744332	      0.110812	      0.708173	      0.110349	      0.076750	      0.075723
      0.520771	      0.077420	      1.806479	     69.592256	     -2.016206	      0.278458	      0.161966	      0.797455	      0.094993	      0.743762	      0.090235	      0.726941	      0.110796	      0.692192	      0.110326	      0.076224	      0.075727
      0.521602	      0.078813	      1.535008	     69.591720	      0.732298	      0.337734	      0.161939	      0.807096	      0.095004	      0.756529	      0.090249	      0.704217	      0.110781	      0.671271	      0.110304	      0.075512	      0.075731
      0.522879	      0.080452	      1.019211	     69.595274	      4.742773	      0.412183	      0.161862	      0.820895	      0.095017	      0.774683	      0.090263	      0.671557	      0.110770	      0.641125	      0.110285	      0.074437	      0.075737
      0.524143	      0.081396	      0.475950	     69.603373	      7.898606	      0.472198	      0.161769	      0.833437	      0.095026	      0.791063	      0.090272	      0.641699	      0.110770	      0.613485	      0.110281	      0.073396	      0.075742
      0.525407	      0.081674	     -0.024008	     69.614724	      9.840763	      0.522647	      0.161671	      0.844985	      0.095032	      0.806050	      0.090277	      0.614018	      0.110776	      0.587792	      0.110284	      0.072378	      0.075747
      0.527642	      0.080854	     -0.638295	     69.637448	      9.686283	      0.595294	      0.161504	      0.863263	      0.095038	      0.829593	      0.090281	      0.569718	      0.110801	      0.546534	      0.110303	      0.070630	      0.075753
      0.529596	      0.079417	     -0.758862	     69.652853	      5.420964	      0.646342	      0.161370	      0.877288	      0.095038	      0.847518	      0.090278	      0.535182	      0.110837	      0.514252	      0.110332	      0.069156	      0.075757
      0.529989	      0.079124	     -0.727574	     69.654726	      4.081923	      0.655519	      0.161345	      0.879913	      0.095038	      0.850861	      0.090276	      0.528651	      0.110846	      0.508136	      0.110339	      0.068866	      0.075757
      0.530002	      0.079115	     -0.726221	     69.654778	      4.035424	      0.655758	      0.161344	      0.879969	      0.095038	      0.850942	      0.090276	      0.528469	      0.110846	      0.507966	      0.110339	      0.068856	      0.075757
      0.530010	      0.079110	     -0.725398	     69.654809	      4.007499	      0.655602	      0.161343	      0.879807	      0.095038	      0.850815	      0.090276	      0.528699	      0.110847	      0.508214	      0.110340	      0.068850	      0.075757
      0.530018	      0.079104	     -0.724567	     69.654840	      3.979544	      0.655421	      0.161343	      0.879624	      0.095038	      0.850671	      0.090276	      0.528980	      0.110847	      0.508514	      0.110340	      0.068845	      0.075757
      0.530056	      0.079076	     -0.720266	     69.654991	      3.839338	      0.654514	      0.161341	      0.878709	      0.095038	      0.849949	      0.090276	      0.530380	      0.110848	      0.510010	      0.110340	      0.068816	      0.075757
      0.530249	      0.078940	     -0.695363	     69.655662	      3.128314	      0.650014	      0.161329	      0.874171	      0.095038	      0.846366	      0.090275	      0.537282	      0.110852	      0.517381	      0.110344	      0.068675	      0.075758
      0.531212	      0.078356	     -0.499698	     69.656900	     -0.591313	      0.628274	      0.161282	      0.852301	      0.095040	      0.829055	      0.090275	      0.569592	      0.110867	      0.551785	      0.110354	      0.067974	      0.075760
      0.532467	      0.077955	     -0.121180	     69.653060	     -5.503634	      0.601730	      0.161244	      0.825720	      0.095046	      0.807911	      0.090279	      0.606931	      0.110876	      0.591353	      0.110357	      0.067077	      0.075762
